<svg xmlns="http://www.w3.org/2000/svg" xmlns:xlink="http://www.w3.org/1999/xlink" preserveAspectRatio="xMidYMid" width="500" height="483.078" viewBox="0 0 24 23.188">
  <defs>
    <style>
      .cls-1 {
        fill: #000;
        fill-rule: evenodd;
      }
    </style>
  </defs>
  <path d="M20.027,5.050 L20.027,8.107 L18.512,8.107 L18.512,5.050 L15.485,5.050 L15.485,3.473 L18.512,3.473 L18.512,0.101 L20.027,0.101 L20.027,3.473 L22.493,3.473 L22.493,5.050 L20.027,5.050 ZM11.426,1.608 C12.693,2.332 13.365,3.824 13.365,5.472 C13.365,6.983 12.529,8.201 11.347,9.124 C10.192,10.027 9.974,10.403 9.974,11.170 C9.974,11.824 11.353,12.798 11.987,13.274 C14.194,14.930 14.610,15.972 14.641,18.041 C14.682,20.793 11.857,23.193 7.330,23.193 C3.358,23.193 0.007,21.580 0.007,18.995 C0.007,15.093 2.787,13.639 6.758,13.639 C7.191,13.639 7.588,13.627 7.998,13.627 C7.455,13.101 7.016,12.645 7.016,11.847 C7.016,11.371 7.166,10.918 7.378,10.514 C7.163,10.527 6.942,10.542 6.716,10.542 C3.453,10.542 1.554,8.249 1.554,5.375 C1.554,2.562 4.445,0.003 7.913,0.003 C9.701,0.003 14.748,0.003 14.748,0.003 L13.221,1.608 L11.426,1.608 ZM7.500,15.093 C4.810,15.093 2.587,16.181 2.587,18.228 C2.587,20.314 4.570,22.052 7.315,22.052 C11.174,22.052 12.519,20.422 12.519,18.333 C12.519,18.081 12.512,17.827 12.431,17.597 C11.500,15.093 8.500,15.093 7.500,15.093 ZM10.620,5.573 C10.302,3.156 9.341,1.150 7.500,1.093 C5.658,1.040 3.806,2.913 4.126,5.330 C4.443,7.751 6.194,9.441 8.036,9.497 C9.878,9.551 10.937,7.994 10.620,5.573 Z" transform="translate(0.75)" class="cls-1"/>
</svg>
